<svg width="67" height="67" viewBox="0 0 67 67" fill="none" xmlns="http://www.w3.org/2000/svg">
<path d="M38.0356 44.5587C38.0356 47.0118 36.6026 49 34.1496 49H24.9895C22.5364 49 21.1034 47.0118 21.1034 44.5587" stroke="#FCC436" stroke-width="2.22062" stroke-miterlimit="10" stroke-linecap="round"/>
<path d="M39.0071 39.0072C40.2333 39.0072 41.2278 40.2501 41.2278 41.783C41.2278 43.3159 40.2333 44.5587 39.0071 44.5587H20.1319C18.9057 44.5587 17.9113 43.3159 17.9113 41.783C17.9113 40.2501 18.9057 39.0072 20.1319 39.0072" stroke="#FCC436" stroke-width="2.22062" stroke-miterlimit="10" stroke-linecap="round"/>
<path d="M39.5623 39.0072H28.1338C27.9867 39.0073 27.8457 39.0657 27.7417 39.1696L25.8798 41.0314C25.8541 41.0573 25.8234 41.0777 25.7897 41.0917C25.756 41.1057 25.7199 41.1129 25.6834 41.1129C25.647 41.1129 25.6108 41.1057 25.5771 41.0917C25.5435 41.0777 25.5128 41.0573 25.4871 41.0314L23.6252 39.1696C23.5212 39.0657 23.3802 39.0073 23.2331 39.0072H19.5767C19.135 39.0072 18.7114 38.8317 18.3991 38.5194C18.0868 38.2071 17.9113 37.7835 17.9113 37.3417C17.9113 36.9 18.0868 36.4764 18.3991 36.1641C18.7114 35.8518 19.135 35.6763 19.5767 35.6763H39.5623C40.004 35.6763 40.4276 35.8518 40.74 36.1641C41.0523 36.4764 41.2278 36.9 41.2278 37.3417C41.2278 37.7835 41.0523 38.2071 40.74 38.5194C40.4276 38.8317 40.004 39.0072 39.5623 39.0072Z" fill="#FCC436" stroke="#FCC436" stroke-width="2.22062" stroke-miterlimit="10" stroke-linecap="round"/>
<path d="M20.1318 34.8435V34.8283C20.1318 31.0116 23.2545 29.0144 27.0712 29.0144H32.0676C35.8843 29.0144 39.0071 31.0268 39.0071 34.8435V34.8283" stroke="#FCC436" stroke-width="2.22062" stroke-miterlimit="10" stroke-linecap="round"/>
<path d="M32.4147 23.4629L32.931 27.902" stroke="#FCC436" stroke-width="2.22062" stroke-miterlimit="10" stroke-linecap="round"/>
<path d="M33.4555 49H43.1228C43.683 49 44.2225 48.7882 44.6332 48.4071C45.0439 48.0261 45.2953 47.5039 45.3372 46.9452L47.8201 23.4629" stroke="#FCC436" stroke-width="2.22062" stroke-miterlimit="10" stroke-linecap="round"/>
<path d="M41.2279 23.4629L42.3382 19.0217L45.5997 17.9114" stroke="#FCC436" stroke-width="2.22062" stroke-linecap="round" stroke-linejoin="round"/>
<path d="M31.235 23.4629H48.9999" stroke="#FCC436" stroke-width="2.22062" stroke-miterlimit="10" stroke-linecap="round"/>
<rect x="1.3344" y="1.61464" width="64.051" height="64.051" rx="32.0255" stroke="#FCC436" stroke-width="2.66879"/>
</svg>
