<svg width="52" height="52" viewBox="0 0 52 52" fill="none" xmlns="http://www.w3.org/2000/svg">
<rect width="52" height="52" rx="5" fill="#FCDC36"/>
<path fill-rule="evenodd" clip-rule="evenodd" d="M25.6978 22.3109V19.6482V22.3109Z" fill="#8958A3"/>
<path d="M25.6978 22.3109V19.6482" stroke="#8958A3" stroke-width="1.33139" stroke-linecap="square"/>
<path fill-rule="evenodd" clip-rule="evenodd" d="M45.0029 40.9504C45.0029 30.2885 36.3597 21.6453 25.6978 21.6453C15.0359 21.6453 6.3927 30.2885 6.3927 40.9504H45.0029Z" fill="#41197F"/>
<path d="M25.6978 24.9737C19.4323 24.9737 14.0091 28.5804 11.3912 33.8309" stroke="white" stroke-width="1.33139" stroke-linecap="round"/>
<path d="M45.3358 40.9504H6.05986C5.14073 40.9504 4.39563 41.6955 4.39563 42.6146C4.39563 43.5337 5.14073 44.2788 6.05986 44.2788H45.3358C46.2549 44.2788 47 43.5337 47 42.6146C47 41.6955 46.2549 40.9504 45.3358 40.9504Z" fill="#8958A3"/>
<path fill-rule="evenodd" clip-rule="evenodd" d="M23.0352 18.3168H28.3607V20.3139H23.0352V18.3168Z" fill="#41197F"/>
<path fill-rule="evenodd" clip-rule="evenodd" d="M34.7162 5C32.1115 5 30 6.57238 30 9.76379C30 12.9552 37.1205 20.1321 38.3226 20.1321C39.5248 20.1321 46.6453 12.9552 46.6453 9.76379C46.6453 6.57238 44.5338 5 41.9291 5C40.4823 5 39.1877 5.65802 38.3226 6.69394C37.4575 5.65802 36.1629 5 34.7162 5Z" fill="#E44343"/>
<path d="M35.1145 7.27313C33.4097 7.27313 31.7048 8.97798 32.8414 11.2511" stroke="white" stroke-width="1.51321" stroke-linecap="round"/>
</svg>
